<?xml version="1.0" standalone="no"?>
<!DOCTYPE svg PUBLIC "-//W3C//DTD SVG 20010904//EN"
 "http://www.w3.org/TR/2001/REC-SVG-20010904/DTD/svg10.dtd">
<svg version="1.0" xmlns="http://www.w3.org/2000/svg"
 width="503.000000pt" height="537.000000pt" viewBox="0 0 503.000000 537.000000"
 preserveAspectRatio="xMidYMid meet">

<g transform="translate(0.000000,537.000000) scale(0.100000,-0.100000)"
fill="#000000" stroke="none">
<path d="M2265 5355 c-328 -40 -585 -115 -857 -250 -507 -254 -892 -646 -1139
-1160 -333 -696 -327 -1491 17 -2184 210 -424 525 -768 933 -1023 42 -26 77
-45 78 -44 2 2 -5 24 -14 51 -16 41 -28 55 -93 98 -142 96 -235 171 -358 292
-208 202 -348 391 -471 635 -195 385 -270 729 -258 1175 12 468 141 873 402
1265 281 424 706 758 1189 935 626 230 1352 181 1946 -131 214 -113 399 -249
577 -425 491 -484 744 -1119 720 -1804 -13 -364 -88 -666 -247 -990 -231 -470
-609 -847 -1092 -1091 -149 -75 -504 -204 -562 -204 -7 0 -30 -18 -51 -40 -21
-22 -36 -40 -32 -40 19 0 242 52 322 75 246 71 521 209 734 369 492 370 830
899 955 1495 39 185 50 303 50 516 0 287 -36 516 -120 770 -304 918 -1086
1569 -2044 1701 -156 22 -441 26 -585 9z"/>
<path d="M2355 5160 c-444 -33 -851 -184 -1215 -454 -130 -96 -370 -337 -468
-470 -224 -304 -367 -650 -429 -1039 -25 -157 -24 -509 1 -662 102 -623 415
-1149 899 -1510 l37 -28 -27 60 c-22 47 -46 76 -108 130 -402 352 -657 818
-741 1353 -25 160 -25 500 0 660 37 238 100 439 206 655 343 701 1022 1170
1805 1246 147 14 401 7 545 -16 461 -73 880 -281 1209 -599 368 -357 583 -769
668 -1281 25 -155 25 -515 0 -670 -68 -413 -237 -790 -489 -1090 -159 -190
-370 -372 -572 -495 -102 -61 -284 -149 -377 -181 -51 -18 -71 -31 -93 -61
-15 -21 -25 -38 -23 -38 26 0 241 86 352 140 621 302 1065 863 1225 1545 39
169 53 304 54 510 0 227 -17 362 -69 570 -169 672 -650 1245 -1287 1531 -333
150 -736 220 -1103 194z"/>
<path d="M2503 4994 c-3 -9 -1 -25 6 -36 10 -16 10 -48 0 -154 -7 -74 -15
-131 -20 -127 -4 4 -23 59 -43 122 -26 85 -33 119 -25 133 12 23 4 38 -22 38
-27 0 -35 -27 -15 -49 11 -12 21 -57 31 -137 8 -65 15 -123 15 -129 -1 -31
-102 148 -110 195 -4 26 -10 35 -25 35 -28 0 -32 -40 -7 -54 14 -8 34 -53 67
-156 58 -178 72 -195 170 -195 l63 0 42 50 c33 40 47 70 75 164 36 124 50 156
66 156 18 0 5 45 -15 48 -23 5 -38 -16 -30 -42 4 -10 -12 -57 -36 -112 -42
-92 -67 -122 -56 -66 3 15 8 73 12 130 3 56 10 105 15 108 5 3 9 16 9 30 0 17
-5 24 -19 24 -26 0 -34 -15 -22 -39 8 -14 2 -52 -21 -147 -22 -90 -33 -122
-38 -109 -12 33 -32 227 -28 280 2 41 0 50 -15 53 -9 2 -20 -4 -24 -14z m107
-459 c0 -9 -12 -20 -26 -25 -54 -21 -144 -5 -144 25 0 12 15 15 85 15 70 0 85
-3 85 -15z"/>
<path d="M1920 4930 c-8 -14 -5 -39 10 -97 22 -83 24 -146 10 -263 -12 -102 2
-199 39 -264 22 -38 31 -71 37 -126 4 -41 14 -85 22 -97 8 -14 12 -33 8 -47
-5 -22 -12 -25 -59 -28 l-52 -3 -3 -48 c-2 -37 6 -71 38 -154 41 -103 41 -108
35 -188 -8 -90 1 -205 16 -205 5 0 9 26 9 57 0 31 7 83 16 115 16 55 16 63 -1
126 -35 135 -39 158 -29 203 8 38 13 44 43 50 44 9 58 25 70 79 34 154 33 147
16 207 -9 32 -32 87 -51 123 -47 89 -45 104 17 138 28 15 65 38 81 51 27 22
30 29 24 65 -3 23 -7 72 -9 110 l-3 69 -55 49 c-99 89 -204 125 -229 78z"/>
<path d="M2955 4772 c-20 -20 -38 -47 -42 -61 -3 -15 -13 -36 -21 -49 -14 -22
-13 -22 19 -21 19 1 73 -1 120 -4 77 -5 86 -4 82 11 -2 10 2 26 10 36 11 15
21 17 51 12 38 -7 38 -8 31 -44 -28 -133 -7 -167 178 -289 54 -36 94 -54 126
-59 49 -7 81 -20 93 -38 4 -6 8 -47 8 -91 0 -59 -6 -92 -21 -124 -17 -39 -19
-57 -13 -141 8 -115 1 -126 -72 -116 -57 7 -127 45 -190 102 -41 36 -46 45
-34 54 27 18 95 12 126 -12 l29 -23 -24 40 c-41 68 -39 68 -127 56 -43 -5
-110 -10 -148 -10 -37 0 -81 -5 -97 -11 -21 -9 -44 -10 -91 -1 -59 10 -67 15
-138 85 -77 76 -173 135 -186 115 -5 -8 -34 -9 -95 -4 -82 6 -88 5 -99 -14 -8
-16 -8 -27 2 -43 7 -13 15 -69 18 -125 4 -80 9 -106 23 -120 17 -17 17 -16 1
22 -12 29 -15 57 -11 102 7 97 50 146 69 78 4 -15 12 -32 19 -36 6 -4 19 -29
28 -55 14 -41 24 -53 61 -72 33 -17 55 -22 82 -18 20 4 39 2 42 -2 10 -16 -32
-69 -67 -85 -42 -20 -60 -21 -112 -2 -49 18 -57 12 -14 -11 18 -9 57 -17 87
-18 59 -1 48 -10 150 113 29 34 51 51 66 51 42 0 50 -23 51 -143 1 -88 5 -118
18 -138 32 -49 187 -101 251 -85 14 3 59 38 100 76 71 65 106 85 106 59 0 -6
10 -9 23 -6 64 14 109 -44 82 -108 -7 -16 -21 -50 -31 -74 -10 -24 -39 -64
-63 -89 -25 -25 -50 -54 -56 -66 -6 -11 -22 -26 -35 -33 -14 -7 -47 -31 -73
-54 -42 -36 -55 -42 -110 -46 -34 -3 -67 -10 -74 -15 -19 -15 -50 0 -75 35
-12 18 -46 58 -74 90 -29 31 -63 79 -76 105 -12 26 -24 50 -26 55 -2 4 12 7
32 7 42 0 45 8 12 39 -23 22 -26 22 -48 7 -12 -9 -30 -16 -39 -16 -9 0 -23
-10 -31 -22 l-15 -22 -43 19 -42 19 -48 -27 c-26 -15 -58 -27 -70 -27 -33 0
-57 -17 -64 -44 -5 -21 -13 -25 -59 -30 -370 -42 -406 -50 -391 -89 9 -24 72
-22 334 9 l218 26 38 -25 c22 -13 61 -36 87 -51 52 -30 56 -46 13 -61 -20 -7
-35 -5 -59 7 -30 16 -60 22 -99 19 -12 -1 -18 -9 -18 -25 0 -28 14 -42 55 -52
17 -4 50 -18 74 -31 74 -39 151 -24 138 27 -9 36 19 52 55 31 29 -17 37 -31
15 -31 -7 0 -20 -8 -29 -19 -8 -10 -22 -21 -29 -24 -11 -5 -10 -9 4 -20 24
-20 21 -44 -8 -72 -26 -27 -63 -33 -82 -14 -9 9 -27 9 -72 -1 l-59 -12 -61 37
c-69 42 -76 51 -85 120 -3 28 -11 75 -18 106 l-11 55 -161 -18 c-152 -18 -162
-20 -185 -46 -12 -15 -65 -70 -116 -122 -78 -80 -101 -112 -149 -205 -31 -60
-72 -139 -91 -175 -43 -79 -75 -179 -75 -231 0 -21 -4 -39 -8 -39 -10 0 -32
44 -32 64 0 6 -11 27 -25 46 -35 48 -34 102 5 163 16 26 30 52 30 58 0 5 6 20
14 32 8 12 17 48 21 79 10 85 -8 130 -81 204 -38 37 -67 77 -74 100 -37 115
-102 202 -175 235 -56 26 -101 23 -171 -10 -52 -24 -68 -28 -104 -21 -61 11
-104 -4 -128 -44 -11 -18 -39 -44 -63 -57 -31 -17 -58 -45 -91 -94 -25 -38
-56 -74 -67 -79 -24 -10 -36 -45 -27 -74 6 -18 11 -16 46 21 22 23 55 67 72
97 25 41 45 61 81 80 27 14 58 38 69 53 32 44 71 59 132 52 49 -6 54 -5 69 19
39 58 136 56 196 -6 33 -34 91 -137 91 -163 0 -9 14 -59 31 -110 31 -93 32
-94 75 -111 34 -13 48 -26 64 -58 23 -49 18 -79 -27 -154 -50 -81 -65 -133
-52 -173 7 -19 15 -38 19 -44 4 -5 15 -32 23 -60 27 -86 73 -205 130 -334 l55
-125 -32 -16 c-29 -15 -33 -15 -58 2 -41 28 -42 21 -3 -13 32 -29 38 -31 60
-19 20 11 28 10 57 -7 36 -21 53 -57 21 -47 -10 3 -28 11 -41 17 -17 8 -28 8
-41 0 -15 -10 -23 -7 -42 13 -34 37 -44 29 -13 -11 22 -29 32 -35 53 -31 14 3
42 -2 61 -12 33 -16 35 -20 41 -80 5 -55 11 -68 39 -95 l33 -32 -21 35 c-18
30 -43 124 -30 110 3 -3 33 -59 67 -125 75 -143 124 -210 305 -415 227 -254
304 -367 383 -558 69 -164 67 -158 49 -248 -21 -101 -66 -193 -123 -252 -51
-53 -67 -44 -30 15 29 46 52 106 61 154 5 31 3 37 -14 42 -24 6 -25 28 -3 89
l17 48 -39 95 c-21 52 -40 95 -42 95 -3 0 -2 -18 2 -40 8 -49 -9 -54 -29 -7
-17 40 -224 287 -240 287 -2 0 2 -28 9 -62 12 -56 19 -67 73 -117 69 -65 84
-109 62 -188 -13 -44 -13 -45 19 -73 17 -16 31 -36 31 -44 0 -9 13 -25 30 -37
44 -33 56 -78 36 -136 -9 -26 -16 -58 -16 -72 -1 -25 -1 -26 -16 -6 -8 11 -13
29 -10 40 3 11 8 39 12 62 6 39 4 45 -25 70 -18 16 -39 43 -46 60 -33 78 -54
14 -79 -239 -12 -113 -16 -132 -42 -169 -43 -62 -109 -109 -154 -109 -50 0
-67 22 -95 117 -25 89 -56 163 -68 163 -4 0 -20 -21 -35 -47 -31 -54 -94 -123
-112 -123 -23 0 -161 152 -189 209 -37 73 -87 215 -108 305 -13 60 -15 108 -9
316 10 339 23 526 41 587 18 61 62 103 107 103 43 0 128 -86 239 -241 50 -72
93 -128 95 -126 6 5 -34 103 -75 185 -54 107 -186 305 -256 382 -40 45 -73 97
-105 165 -55 119 -65 164 -44 213 18 44 11 53 -13 16 -29 -45 -21 -112 33
-253 65 -174 65 -180 14 -292 -24 -50 -51 -128 -61 -173 -25 -112 -50 -312
-51 -410 -1 -47 -6 -87 -13 -96 -7 -8 -16 -26 -20 -40 -6 -23 -4 -22 20 8 36
44 48 40 22 -7 -19 -35 -20 -43 -9 -75 9 -24 11 -62 6 -124 -8 -106 5 -154 93
-350 108 -240 186 -344 281 -377 26 -9 78 -29 117 -43 58 -22 86 -27 165 -27
94 0 96 0 200 51 73 36 140 80 220 144 63 51 147 116 185 145 39 29 145 126
236 216 184 181 340 376 359 451 26 95 50 135 95 159 34 18 49 35 66 74 13 27
65 114 116 192 52 78 105 166 119 197 24 53 53 169 54 213 0 13 11 62 25 109
20 69 25 108 25 199 0 138 -16 225 -85 470 -69 245 -93 352 -100 456 -3 46
-11 110 -17 141 l-11 58 75 78 c116 122 184 260 159 325 -9 22 -15 27 -31 22
-27 -9 -27 22 0 75 11 22 20 53 20 69 0 16 14 67 30 112 50 134 61 319 20 319
-6 0 -10 9 -10 19 0 11 -5 23 -11 27 -7 4 -10 -8 -8 -37 3 -35 0 -44 -14 -47
-14 -3 -17 5 -17 50 0 29 -3 69 -6 89 -6 32 -3 38 17 44 l23 8 -27 14 c-15 7
-27 22 -27 33 0 33 -20 64 -60 93 -44 31 -52 33 -43 10 5 -13 2 -15 -15 -11
-12 4 -24 2 -27 -2 -3 -4 -18 -13 -35 -18 -27 -10 -31 -8 -47 19 -19 32 -35
39 -93 44 -28 2 -51 13 -77 35 -20 18 -54 40 -75 50 -20 9 -47 29 -59 43 -30
40 -67 55 -131 54 -52 0 -61 -3 -93 -35z m75 13 c0 -8 -7 -15 -15 -15 -8 0
-15 7 -15 15 0 8 7 15 15 15 8 0 15 -7 15 -15z m-550 -635 c0 -5 -4 -10 -10
-10 -5 0 -10 5 -10 10 0 6 5 10 10 10 6 0 10 -4 10 -10z m200 -30 c8 -5 29
-23 45 -40 l30 -32 -49 31 c-28 17 -57 31 -65 31 -9 0 -36 7 -61 15 l-45 15
65 -6 c36 -4 72 -10 80 -14z m350 -352 c19 -7 54 -27 78 -42 27 -19 64 -32 99
-37 30 -4 58 -10 61 -14 4 -4 -10 -22 -30 -41 -33 -30 -44 -34 -91 -34 -61 0
-130 31 -160 71 -11 15 -22 48 -25 74 -6 53 -9 52 68 23z m670 -115 c0 -43 -1
-45 -17 -31 -10 8 -26 13 -35 11 -15 -4 -18 -16 -18 -68 0 -35 -5 -76 -10 -91
-6 -15 -44 -61 -84 -103 -40 -42 -79 -92 -86 -111 -7 -19 -16 -82 -19 -140
l-6 -105 -35 -17 c-306 -147 -362 -169 -327 -130 9 10 14 27 11 37 -2 11 -1
25 3 30 13 17 96 80 124 94 41 20 127 108 150 154 12 23 31 55 43 72 11 16 20
36 18 43 -5 21 27 118 43 132 8 7 22 36 31 65 8 30 21 59 29 65 16 13 14 16
38 -55 16 -47 28 -50 41 -12 7 20 7 33 -2 45 -47 66 -50 104 -11 123 18 8 102
37 112 38 4 1 7 -20 7 -46z m-1058 -214 c9 -5 24 -6 34 -2 13 5 16 3 11 -10
-4 -10 1 -22 14 -30 26 -19 15 -50 -15 -41 -38 12 -156 74 -156 82 0 5 3 12 7
15 7 8 81 -2 105 -14z m-212 -53 c0 -15 -13 -18 -155 -36 -123 -15 -205 -21
-205 -15 0 22 40 35 151 48 169 20 209 20 209 3z m-13 -262 c8 -44 23 -83 41
-109 30 -43 105 -104 162 -131 19 -9 42 -20 50 -24 23 -11 19 -44 -6 -48 -30
-4 -217 94 -273 142 -38 34 -42 59 -26 153 8 47 15 88 15 90 0 3 6 3 13 1 6
-3 18 -36 24 -74z m513 -39 c-7 -8 -16 -15 -21 -15 -14 0 -11 38 4 43 20 7 31
-11 17 -28z m-86 -672 c-4 -21 -15 -60 -25 -88 -13 -34 -15 -51 -8 -56 7 -4
66 -10 134 -14 67 -4 127 -10 134 -14 7 -4 -60 -11 -149 -14 l-161 -7 -46 -37
-46 -38 128 -7 c269 -14 440 -90 555 -246 27 -37 48 -68 46 -69 -1 -2 -46 26
-100 62 -131 88 -252 145 -329 156 -88 12 -264 30 -316 32 -45 2 -45 2 -58
-42 -7 -24 -30 -63 -53 -87 -22 -24 -40 -49 -41 -56 0 -7 -3 -35 -5 -62 -10
-95 -13 -93 133 -88 140 5 212 -6 280 -41 117 -62 319 -223 349 -279 8 -15 14
-38 14 -52 0 -33 -73 -253 -104 -315 -29 -55 -135 -214 -169 -251 -30 -33
-129 -117 -192 -162 -27 -20 -68 -55 -90 -77 -21 -23 -42 -41 -46 -41 -3 0 -9
57 -11 128 -7 181 -29 231 -240 541 -32 47 -58 90 -58 98 0 17 33 33 68 33 33
0 57 22 73 69 8 24 19 33 41 38 19 4 26 9 19 16 -17 17 -58 -1 -71 -33 -16
-39 -55 -70 -89 -70 -15 0 -37 -7 -49 -16 -19 -13 -22 -13 -22 0 0 8 5 18 10
21 33 20 -27 129 -77 141 -37 9 -83 42 -83 60 0 18 17 18 27 0 4 -8 33 -26 63
-40 41 -20 62 -38 85 -74 36 -57 65 -65 92 -27 10 15 26 35 36 46 13 15 14 19
3 19 -8 0 -24 -14 -36 -30 -12 -17 -28 -30 -36 -30 -8 0 -30 22 -49 49 -25 34
-48 53 -79 65 -59 22 -81 48 -67 75 16 30 97 82 166 107 67 24 63 18 83 157
15 103 99 245 214 360 67 67 96 106 121 158 17 38 33 69 35 69 2 0 0 -17 -4
-37z m-644 -912 c0 -5 24 -21 53 -34 31 -15 59 -37 70 -55 19 -34 20 -41 8
-61 -8 -12 -25 -5 -89 38 l-80 52 11 35 c9 31 27 47 27 25z"/>
<path d="M2513 1706 c-37 -14 -83 -54 -83 -73 0 -16 3 -16 43 1 33 14 87 62
87 77 0 11 -5 10 -47 -5z"/>
<path d="M2955 1433 c-25 -66 -68 -127 -107 -151 -18 -11 -77 -32 -131 -45
-94 -24 -147 -48 -147 -66 0 -39 151 -101 245 -101 47 0 56 3 73 28 23 32 47
98 61 167 14 67 32 207 28 212 -2 2 -12 -18 -22 -44z"/>
<path d="M1470 4777 c-28 -14 -37 -46 -20 -76 22 -43 110 -9 96 37 -8 23 -32
52 -44 52 -4 0 -18 -6 -32 -13z"/>
<path d="M3546 4748 c-9 -12 -16 -27 -16 -33 0 -19 42 -78 48 -69 4 5 16 14
27 20 11 6 24 23 30 39 8 23 6 30 -14 46 -31 25 -56 24 -75 -3z"/>
<path d="M3310 4742 c0 -11 161 -94 168 -87 8 7 -27 43 -62 64 -36 23 -106 38
-106 23z"/>
<path d="M1557 4587 c-20 -11 -36 -24 -35 -27 9 -22 184 -310 188 -310 3 0 21
10 41 23 l37 22 -88 149 c-49 82 -93 153 -97 157 -4 4 -25 -2 -46 -14z"/>
<path d="M2741 4554 c-11 -15 -21 -33 -21 -42 0 -8 11 2 25 23 30 44 27 58 -4
19z"/>
<path d="M660 3998 c-25 -27 -26 -50 -2 -71 26 -23 58 -21 76 5 21 30 20 44
-4 68 -26 26 -44 25 -70 -2z"/>
<path d="M4337 3972 c-23 -25 -21 -55 3 -77 24 -22 65 -14 81 16 9 18 7 26 -8
48 -25 32 -54 38 -76 13z"/>
<path d="M816 3864 c-9 -21 -13 -40 -9 -44 10 -10 275 -157 295 -165 10 -4 23
6 37 30 11 20 21 38 21 40 0 5 -306 175 -317 175 -5 0 -17 -16 -27 -36z"/>
<path d="M4037 3796 c-81 -46 -150 -86 -153 -89 -6 -5 35 -77 44 -77 13 0 306
168 309 176 4 11 -34 74 -44 74 -5 -1 -75 -38 -156 -84z"/>
<path d="M2309 3628 c-42 -40 -174 -217 -167 -223 2 -1 50 4 108 11 58 7 110
13 115 14 13 0 11 233 -2 237 -6 2 -30 -16 -54 -39z"/>
<path d="M1144 3207 c4 -13 -3 -28 -24 -49 -46 -46 -37 -78 31 -113 27 -15 33
-26 42 -85 3 -15 5 -10 6 15 1 52 -35 225 -50 239 -9 8 -10 7 -5 -7z"/>
<path d="M875 3150 c-11 -17 -18 -140 -8 -140 12 0 43 87 43 123 0 27 -22 38
-35 17z"/>
<path d="M4048 3033 c-16 -17 -18 -41 -18 -174 0 -118 3 -160 14 -175 13 -17
30 -19 213 -22 160 -3 202 0 211 11 7 8 12 73 14 175 3 142 1 163 -15 179 -15
15 -42 18 -210 21 -180 4 -193 3 -209 -15z"/>
<path d="M356 2934 c-31 -30 -10 -94 30 -94 33 0 54 21 54 53 0 18 -5 38 -12
45 -17 17 -54 15 -72 -4z"/>
<path d="M530 2885 c0 -43 1 -45 30 -45 29 0 30 2 30 45 0 43 -1 45 -30 45
-29 0 -30 -2 -30 -45z"/>
<path d="M4628 2909 c-21 -12 -24 -69 -6 -87 7 -7 24 -12 40 -12 48 0 66 66
26 94 -26 18 -36 19 -60 5z"/>
<path d="M656 2736 c13 -112 85 -235 165 -281 78 -46 143 -170 178 -338 10
-51 46 -182 79 -292 72 -240 79 -275 87 -430 9 -169 46 -314 126 -490 12 -27
26 -66 29 -85 6 -34 7 -33 14 20 7 51 5 62 -33 147 -55 126 -68 180 -75 308
-3 61 -17 179 -31 263 -14 84 -25 166 -25 183 0 68 -31 169 -65 209 -35 42
-68 119 -87 202 -9 37 -8 53 3 75 8 15 19 28 24 29 6 0 27 4 47 8 26 6 35 12
31 22 -8 20 -59 9 -100 -22 -17 -13 -34 -24 -37 -24 -2 0 -19 36 -36 81 -28
73 -40 90 -123 172 -92 91 -121 136 -159 242 l-18 50 6 -49z"/>
<path d="M1278 2620 c-45 -8 -101 -39 -125 -71 -7 -9 -26 -22 -43 -29 -16 -7
-30 -16 -30 -21 0 -5 1 -9 3 -9 10 0 79 40 111 65 34 25 50 30 113 33 85 5
114 -8 140 -63 9 -19 20 -35 25 -35 11 0 10 17 -2 41 -10 17 -7 20 19 25 41 9
29 24 -18 24 -21 0 -41 3 -45 7 -6 6 -35 18 -86 35 -8 3 -36 2 -62 -2z"/>
<path d="M1250 2558 c-55 -28 -77 -67 -62 -112 l10 -31 1 43 c1 59 39 98 104
107 78 12 117 -28 117 -118 0 -28 -7 -48 -22 -64 -16 -17 -18 -22 -6 -18 28
11 49 69 42 116 -15 90 -94 123 -184 77z"/>
<path d="M1507 2533 c-3 -5 -2 -15 4 -23 5 -8 9 -24 9 -36 0 -11 7 -29 16 -40
14 -18 15 -16 9 21 -8 47 -30 92 -38 78z"/>
<path d="M1050 2479 c0 -5 5 -7 10 -4 6 3 10 8 10 11 0 2 -4 4 -10 4 -5 0 -10
-5 -10 -11z"/>
<path d="M1118 2478 c6 -7 13 -30 17 -51 7 -35 20 -55 31 -45 2 3 -3 28 -11
56 -11 34 -21 52 -32 52 -11 0 -13 -3 -5 -12z"/>
<path d="M1273 2483 c-18 -2 -33 -9 -33 -15 0 -6 13 -8 35 -4 38 7 40 5 24
-25 -5 -11 -8 -28 -6 -37 3 -13 7 -10 15 11 22 52 25 77 11 75 -8 0 -29 -3
-46 -5z"/>
<path d="M992 2460 c-46 -28 -56 -60 -35 -113 18 -47 31 -67 44 -67 15 0 10
25 -16 75 -28 52 -25 64 27 91 15 8 28 19 28 24 0 15 -11 12 -48 -10z"/>
<path d="M1455 2406 c-35 -73 -164 -112 -235 -71 -32 18 -59 20 -42 3 18 -18
15 -25 -13 -31 -20 -3 -29 1 -40 22 -19 35 -19 8 0 -29 14 -27 17 -28 52 -18
27 7 47 7 74 -2 69 -23 172 15 204 74 12 22 28 36 40 37 17 1 18 2 2 6 -12 3
-16 11 -12 23 12 37 -11 26 -30 -14z"/>
<path d="M1070 2421 c0 -20 20 -61 29 -61 6 0 6 11 -1 30 -10 30 -28 50 -28
31z"/>
<path d="M1025 2393 c4 -10 10 -26 12 -35 4 -15 23 -26 23 -14 0 16 -24 66
-32 66 -6 0 -7 -8 -3 -17z"/>
<path d="M1200 2403 c0 -6 8 -17 18 -24 16 -13 16 -13 2 6 -8 11 -16 22 -17
24 -2 2 -3 0 -3 -6z"/>
<path d="M1515 2380 c-29 -9 -55 -34 -55 -53 0 -6 8 -3 18 6 9 8 36 19 60 24
45 8 61 27 27 30 -11 1 -33 -2 -50 -7z"/>
<path d="M1216 2168 c7 -40 13 -91 13 -113 1 -26 10 -54 26 -77 14 -20 25 -44
25 -52 0 -22 27 -33 100 -39 73 -7 56 8 -21 18 -44 6 -47 8 -78 67 -20 40 -31
75 -31 103 0 42 -25 143 -40 158 -4 5 -1 -25 6 -65z"/>
<path d="M3894 2051 l-21 -38 159 -93 c88 -50 161 -90 162 -88 1 2 12 20 24
40 l21 37 -155 90 c-85 50 -158 91 -162 91 -4 0 -16 -18 -28 -39z"/>
<path d="M1202 2010 c0 -30 -4 -84 -10 -118 -13 -73 -6 -119 33 -232 14 -41
35 -127 45 -190 27 -157 30 -170 41 -170 11 0 11 85 0 155 -5 28 -27 120 -50
205 -40 150 -47 207 -32 260 7 24 7 24 26 -15 18 -35 26 -42 72 -53 36 -9 63
-10 85 -3 l33 9 -45 2 c-70 2 -113 21 -131 57 -9 17 -24 44 -34 60 -10 15 -22
41 -26 58 -6 24 -7 19 -7 -25z"/>
<path d="M905 2010 c-150 -88 -137 -76 -121 -107 31 -57 27 -57 119 -3 85 50
86 51 80 83 -13 66 -13 66 -78 27z"/>
<path d="M643 1870 c-48 -19 -31 -100 22 -100 50 0 72 53 35 90 -22 22 -25 23
-57 10z"/>
<path d="M4331 1824 c-26 -33 -26 -39 -1 -64 25 -25 52 -26 73 -2 23 26 21 58
-5 76 -31 22 -43 20 -67 -10z"/>
<path d="M1590 1525 c-7 -33 -19 -73 -27 -89 -19 -38 -9 -77 57 -206 126 -248
240 -500 251 -555 7 -33 13 -103 13 -156 1 -100 8 -111 32 -53 58 139 -50 539
-284 1054 l-29 65 -13 -60z"/>
<path d="M1845 1280 c-16 -26 141 -140 193 -140 8 0 39 -14 68 -31 l54 -30 0
26 c0 31 -25 92 -47 117 -13 14 -32 18 -87 18 -54 0 -83 6 -123 25 -29 13 -55
20 -58 15z"/>
<path d="M3482 1216 c-6 -13 -20 -27 -31 -31 -24 -7 -26 -15 -8 -39 12 -17 15
-17 50 4 20 12 37 24 37 26 0 2 -8 17 -18 34 l-19 30 -11 -24z"/>
<path d="M3552 1054 c-36 -25 -22 -94 19 -94 49 0 77 36 57 73 -20 40 -41 46
-76 21z"/>
<path d="M1641 945 c7 -25 7 -52 0 -86 -10 -44 -8 -56 11 -101 26 -60 18 -81
-33 -86 -19 -2 -37 -7 -42 -11 -10 -9 85 -7 101 3 18 11 15 47 -9 101 -18 41
-19 53 -9 92 12 50 6 95 -15 113 -12 10 -12 6 -4 -25z"/>
<path d="M1687 883 c-5 -64 -2 -86 13 -121 22 -50 37 -57 87 -44 l38 10 -41 1
c-61 1 -80 33 -76 131 3 104 -13 122 -21 23z"/>
<path d="M2198 884 c6 -11 24 -36 41 -58 17 -21 31 -50 31 -65 -1 -44 -20
-115 -37 -133 -9 -10 -14 -20 -11 -23 9 -10 45 41 56 81 25 87 10 138 -53 188
-27 20 -34 23 -27 10z"/>
<path d="M1720 654 c-32 -34 -37 -36 -83 -31 -39 3 -54 0 -68 -14 -27 -27 -24
-47 4 -22 18 18 31 20 76 16 51 -6 55 -4 87 31 28 31 39 36 76 36 31 0 39 3
28 10 -8 5 -31 10 -50 10 -28 0 -43 -8 -70 -36z"/>
</g>
</svg>
